<mxfile host="app.diagrams.net" agent="Mozilla/5.0 (Windows NT 10.0; Win64; x64) AppleWebKit/537.36 (KHTML, like Gecko) Chrome/133.0.0.0 Safari/537.36 Edg/133.0.0.0" version="26.0.13">
  <diagram name="Page-1" id="eNZlmzP2yuV46WajJDo7">
    <mxGraphModel dx="1246" dy="1770" grid="1" gridSize="10" guides="1" tooltips="1" connect="1" arrows="1" fold="1" page="1" pageScale="1" pageWidth="850" pageHeight="1100" math="0" shadow="0">
      <root>
        <mxCell id="0" />
        <mxCell id="1" parent="0" />
        <mxCell id="jitCN0c5IaHYvlneT0sJ-6" style="edgeStyle=orthogonalEdgeStyle;rounded=0;orthogonalLoop=1;jettySize=auto;html=1;" parent="1" source="jitCN0c5IaHYvlneT0sJ-1" edge="1">
          <mxGeometry relative="1" as="geometry">
            <mxPoint x="320" y="200" as="targetPoint" />
          </mxGeometry>
        </mxCell>
        <mxCell id="jitCN0c5IaHYvlneT0sJ-48" value="&lt;h1 style=&quot;margin-top: 0px;&quot;&gt;Dashboard&lt;/h1&gt;&lt;p&gt;the dashboard will contain&amp;nbsp;&lt;/p&gt;&lt;p&gt;1-create or edit or delete the AD&lt;/p&gt;&lt;p&gt;2-The money Which is gained&lt;/p&gt;&lt;p&gt;3-Reviews&lt;/p&gt;" style="text;html=1;whiteSpace=wrap;overflow=hidden;rounded=0;" parent="1" vertex="1">
          <mxGeometry x="640" y="420" width="180" height="170" as="geometry" />
        </mxCell>
        <mxCell id="jitCN0c5IaHYvlneT0sJ-56" style="edgeStyle=orthogonalEdgeStyle;rounded=0;orthogonalLoop=1;jettySize=auto;html=1;entryX=0.5;entryY=0;entryDx=0;entryDy=0;" parent="1" source="jitCN0c5IaHYvlneT0sJ-53" target="jitCN0c5IaHYvlneT0sJ-55" edge="1">
          <mxGeometry relative="1" as="geometry" />
        </mxCell>
        <mxCell id="tQ4F1w8o4W0a-IGcB4DZ-39" value="&lt;h1 style=&quot;margin-top: 0px;&quot;&gt;&lt;span style=&quot;background-color: transparent; color: light-dark(rgb(0, 0, 0), rgb(255, 255, 255));&quot;&gt;Roles&lt;/span&gt;&lt;/h1&gt;&lt;h1 style=&quot;margin-top: 0px;&quot;&gt;&lt;span style=&quot;font-size: 12px; font-weight: 400;&quot;&gt;Admin, Support, Seller, Customer&lt;/span&gt;&lt;/h1&gt;" style="text;html=1;whiteSpace=wrap;overflow=hidden;rounded=0;" parent="1" vertex="1">
          <mxGeometry x="710" y="-100" width="180" height="120" as="geometry" />
        </mxCell>
        <mxCell id="fxSkdVxRATpSx-lLsB4j-5" value="&lt;font style=&quot;color: rgb(51, 255, 51);&quot;&gt;DONE&lt;/font&gt;" style="text;html=1;align=center;verticalAlign=middle;whiteSpace=wrap;rounded=0;fontStyle=1;fontSize=30;" vertex="1" parent="1">
          <mxGeometry x="50" y="950" width="60" height="30" as="geometry" />
        </mxCell>
      </root>
    </mxGraphModel>
  </diagram>
</mxfile>